<svg width="332" height="323" viewBox="0 0 332 323" fill="none" xmlns="http://www.w3.org/2000/svg">
<mask id="mask0_344_362" style="mask-type:luminance" maskUnits="userSpaceOnUse" x="0" y="0" width="290" height="290">
<path d="M0.713379 0.03125H289.937V289.255H0.713379V0.03125Z" fill="white"/>
</mask>
<g mask="url(#mask0_344_362)">
<path d="M145.156 289.01C65.5519 289.01 0.713379 224.172 0.713379 144.469C0.713379 64.7708 65.5519 0.03125 145.156 0.03125C224.755 0.03125 289.594 64.8646 289.594 144.469C289.693 224.172 224.854 289.01 145.156 289.01ZM145.156 2.47396C66.8228 2.47396 3.15609 66.1354 3.15609 144.469C3.15609 222.802 66.9217 286.563 145.156 286.563C223.39 286.563 287.25 222.802 287.25 144.469C287.25 66.1354 223.484 2.47396 145.156 2.47396Z" fill="black"/>
</g>
<mask id="mask1_344_362" style="mask-type:luminance" maskUnits="userSpaceOnUse" x="206" y="193" width="126" height="84">
<path d="M206.667 193.667H332V276.333H206.667V193.667Z" fill="white"/>
</mask>
<g mask="url(#mask1_344_362)">
<mask id="mask2_344_362" style="mask-type:luminance" maskUnits="userSpaceOnUse" x="207" y="169" width="140" height="142">
<path d="M242.114 169.213L346.854 203.417L312.047 310.021L207.307 275.823L242.114 169.213Z" fill="white"/>
</mask>
<g mask="url(#mask2_344_362)">
<mask id="mask3_344_362" style="mask-type:luminance" maskUnits="userSpaceOnUse" x="207" y="169" width="140" height="142">
<path d="M242.114 169.213L346.854 203.417L312.047 310.021L207.307 275.823L242.114 169.213Z" fill="white"/>
</mask>
<g mask="url(#mask3_344_362)">
<mask id="mask4_344_362" style="mask-type:luminance" maskUnits="userSpaceOnUse" x="207" y="169" width="140" height="142">
<path d="M242.114 169.213L346.854 203.417L312.047 310.021L207.307 275.823L242.114 169.213Z" fill="white"/>
</mask>
<g mask="url(#mask4_344_362)">
<path d="M330.313 250.562C329.932 250.271 329.526 250.026 329.094 249.838C324.87 248.01 321.161 245.307 317.292 242.875C313.651 240.583 309.906 238.484 305.839 237.021C300.609 235.135 295.313 233.729 289.661 234.005C285.474 234.203 281.37 234.713 277.417 236.187C275.953 236.729 274.484 237.25 273.016 237.781C272.875 237.396 273.083 237.172 273.271 237C275.417 234.869 277.297 232.51 279.099 230.078C279.396 229.703 279.745 229.38 280.146 229.109C281.151 228.39 282.234 227.802 283.385 227.354C285.042 226.703 286.734 226.151 288.453 225.698C291.495 224.885 294.422 223.76 297.234 222.328C300.995 220.396 304.396 218.026 306.776 214.422C309.729 209.948 313.156 205.817 316.37 201.547C317.219 200.38 318.01 199.177 318.745 197.927C319.099 197.338 319.365 196.708 319.531 196.041C319.755 195.135 319.234 194.401 318.344 194.203C317.943 194.114 317.536 194.083 317.125 194.104C316.031 194.135 314.948 194.265 313.875 194.489C312.349 194.859 310.802 195.14 309.271 195.5C303.385 196.88 298.016 199.26 293.656 203.646C291.339 205.984 288.99 208.281 286.75 210.687C283.885 213.739 282.036 217.26 281.432 221.385C281.13 223.453 280.417 225.364 279.286 227.119C278.693 228.047 278.078 228.953 277.443 229.849C274.755 233.614 271.526 236.875 268.099 239.942C266.396 241.463 264.516 242.698 262.453 243.646C261.896 243.906 261.349 244.198 260.792 244.453C258.484 245.489 256.224 246.646 253.792 247.38C252.318 247.828 251.875 247.828 250.307 247.354C250.354 246.797 250.854 246.599 251.188 246.286C254.344 243.364 256.464 239.817 257.547 235.651C258.609 231.599 260.026 227.651 261.302 223.661C261.964 221.64 262.729 219.656 263.594 217.708C264.698 215.192 265.802 212.677 266.625 210.052C266.828 209.463 266.974 208.869 267.068 208.255C267.208 207.083 266.521 206.442 265.344 206.599C264.875 206.687 264.417 206.812 263.969 206.979C263.047 207.281 262.24 207.817 261.453 208.359C259.37 209.791 257.292 211.244 255.224 212.708C254.333 213.343 253.469 214.015 252.641 214.734C248.505 218.307 245.349 222.526 243.797 227.869C242.281 233.104 241.135 238.375 241.484 243.875C241.531 244.557 241.547 245.239 241.521 245.927C241.453 247.505 241.344 249.067 240.745 250.573C240.391 251.573 239.766 252.364 238.87 252.937C237.365 253.885 235.901 254.901 234.396 255.849C233.359 256.51 232.276 257.109 231.24 257.76C231.042 257.88 230.927 258.052 230.901 258.281C227.453 259.927 224.151 261.828 220.99 263.984C216.375 267.099 211.417 270.63 207.828 274.927C207.703 275.052 207.641 275.203 207.641 275.38C207.641 275.557 207.703 275.708 207.828 275.833C207.958 275.958 208.104 276.021 208.281 276.021C208.458 276.021 208.609 275.953 208.734 275.828C210.984 274.052 213.047 272.031 215.276 270.224C217.448 268.453 219.698 266.791 222.026 265.234C225.802 262.698 229.776 260.474 233.766 258.302C236.005 258.338 238.135 257.817 240.271 257.25C242.052 256.781 243.875 256.411 245.62 255.823C247.271 255.276 248.677 255.547 250.057 256.51C251.172 257.291 252.344 257.989 253.484 258.75C255.88 260.323 258.271 261.916 260.677 263.468C262.833 264.812 265.146 265.797 267.615 266.422C270.51 267.213 273.505 267.505 276.51 267.666C277.344 267.744 278.146 267.614 278.917 267.281C279.089 267.203 279.24 267.088 279.359 266.942C279.484 266.797 279.573 266.63 279.625 266.448C279.672 266.26 279.688 266.078 279.656 265.885C279.625 265.698 279.557 265.526 279.453 265.364C279.229 265.015 278.953 264.708 278.63 264.453C278.083 264.041 277.516 263.661 276.932 263.312C274.906 262.047 272.844 260.833 270.849 259.531C267.995 257.635 265.396 255.432 263.057 252.927C261.339 251.119 259.318 249.755 256.995 248.838C256.703 248.718 256.313 248.698 256.214 248.062C259.359 246.734 262.406 245.359 265.359 243.765C265.984 243.437 266.641 243.323 267.339 243.422C269.177 243.64 270.974 244 272.677 244.75C274.797 245.687 276.896 246.692 279.047 247.526C284.979 249.786 291.031 251.661 297.203 253.156C300.266 253.911 303.375 254.271 306.536 253.896C311.219 253.333 315.906 253.026 320.625 253.25C323.224 253.411 325.807 253.291 328.38 252.89C328.995 252.823 329.583 252.656 330.146 252.39C330.938 251.968 331.021 251.104 330.313 250.562ZM287.563 212.078C289.677 209.734 291.964 207.567 294.146 205.297C298.443 200.864 303.714 198.312 309.625 196.953C311.422 196.541 313.234 196.177 315.036 195.802C315.964 195.619 316.896 195.463 317.781 195.682C318.052 196.104 317.891 196.416 317.729 196.718C316.927 198.161 316.021 199.531 315.005 200.828C311.865 204.901 308.557 208.843 305.724 213.146C303.76 216.13 301.13 218.38 298.016 220.088C296.401 220.984 294.745 221.791 293.047 222.521C292.24 222.864 291.385 223.104 290.552 223.39C290.354 222.802 290.792 222.739 291.01 222.562C292.995 220.994 295.115 219.604 297.078 218.005C301.661 214.25 305.682 209.963 309.151 205.151C310.474 203.323 311.964 201.604 313.37 199.833C313.609 199.526 313.99 199.281 313.865 198.708C313.104 198.604 312.677 199.182 312.182 199.593C311.604 200.078 311.021 200.557 310.484 201.083C310.01 201.557 309.604 202.093 309.089 202.698C308.536 201.411 309.25 200.062 308.443 199.005C308.115 198.979 307.969 199.151 307.948 199.468C307.771 201.953 307.161 204.328 306.125 206.593C305.375 206.411 305.948 205.484 305.146 205.338C304.484 206.828 304.182 208.547 303.104 210.286C303.005 209.01 303.464 208.14 303.536 207.224C303.609 206.198 303.781 205.177 303.766 204.156C303.755 203.244 304 202.276 303.365 201.229C302.891 201.901 302.917 202.396 302.885 202.859C302.672 205.828 301.813 208.646 300.906 211.453C300.526 212.739 299.807 213.797 298.755 214.625C298.172 215.067 297.688 215.651 296.802 216.067C296.938 214.661 297.49 213.557 297.677 212.375C297.885 211.093 298.13 209.807 298.24 208.515C298.339 207.323 298.682 206.104 298.391 204.916C297.938 204.75 297.844 205.041 297.781 205.286C297.286 207.422 296.781 209.557 296.318 211.703C295.839 213.927 295.047 216.047 294.214 218.151C294.151 218.343 294.016 218.489 293.651 218.39C293.703 217.041 294.714 215.807 294.495 214.38C293.906 214.343 293.849 214.729 293.719 215.015C292.953 216.625 292.193 218.239 291.443 219.859C291.156 220.474 291.161 220.479 290.12 221.135C289.953 220.521 290.349 220.073 290.49 219.599C290.672 219.005 290.901 218.432 291.099 217.838C291.266 217.317 291.438 216.791 291.563 216.26C291.708 215.661 291.828 215.057 291.932 214.448C292.026 213.911 292.099 213.364 292.161 212.812C292.229 212.203 292.271 211.588 292.328 210.974C292.38 210.427 292.49 209.88 292.115 209.406C291.661 209.453 291.625 209.807 291.557 210.135C291.031 212.692 290.37 215.208 289.573 217.692C289.219 218.771 288.896 219.869 288.036 221.166C288.026 219.828 288.438 218.953 288.547 218.031C288.646 217.208 289.063 216.369 288.443 215.38C287.911 216.229 287.875 217.067 287.599 217.823C287.328 218.573 287.073 219.385 286.76 220.146C286.453 220.906 286.109 221.656 285.729 222.385C285.349 223.114 285.167 223.911 284.599 224.494C284.151 224.369 284.198 224.119 284.276 223.843C284.766 221.989 285.26 220.135 285.74 218.276C285.854 217.823 286.073 217.354 285.458 216.906C284.349 219.135 283.958 221.619 282.745 223.776C282.292 223.526 282.568 223.172 282.609 222.906C282.802 221.828 283.036 220.76 283.271 219.687C283.958 216.744 285.542 214.297 287.552 212.078H287.563ZM243.276 236.755C243.849 233.015 244.776 229.369 246.068 225.812C246.932 223.468 248.37 221.448 249.932 219.526C251.219 217.906 252.688 216.474 254.344 215.234C257.109 213.218 259.906 211.26 262.708 209.297C263.281 208.916 263.875 208.583 264.495 208.286C264.786 208.135 265.115 208 265.474 208.203C265.672 208.838 265.339 209.406 265.125 209.958C264.203 212.323 263.302 214.703 262.266 217.021C261.255 219.276 260.37 221.583 259.615 223.937C258.411 227.724 257.036 231.463 256.031 235.323C254.875 239.781 252.37 243.406 248.823 246.323C248.74 246.39 248.578 246.375 248.453 246.396C248.432 246.354 248.375 246.291 248.391 246.271C250.854 242.359 252.578 238.104 254.193 233.791C254.641 232.64 255.016 231.468 255.313 230.265C256.411 225.494 258.333 221.015 260.333 216.573C260.62 215.948 260.917 215.328 261.188 214.698C261.297 214.458 261.411 214.187 261.047 213.864C260.276 214.422 259.943 215.328 259.453 216.104C258.958 216.875 258.557 217.625 258.146 218.328C257.516 218.369 257.563 217.927 257.458 217.651C257.214 217.015 257.089 216.307 256.375 216.021C256.021 216.146 256.036 216.396 256.109 216.666C256.422 217.932 256.646 219.208 256.432 220.619C255.781 220.396 256.047 219.484 255.427 219.317C255.328 219.375 255.146 219.442 255.141 219.5C255.125 220.593 255.167 221.687 255.266 222.781C255.427 224.093 255.255 225.369 254.75 226.593C254.604 226.963 254.5 227.349 254.339 227.906C253.839 227.333 253.906 226.765 253.76 226.286C253.599 225.76 253.495 225.224 253.339 224.698C253.161 224.109 252.974 223.521 252.755 222.942C252.563 222.432 252.313 221.942 252.115 221.432C251.911 220.927 251.688 220.453 251.224 220.187C250.76 220.364 250.911 220.646 250.995 220.885C252.313 224.463 252.703 228.203 252.87 231.979C252.927 233.328 252.391 234.755 251.464 236.104C250.875 235.5 251.135 234.5 250.469 233.937C250.099 233.953 250.063 234.187 250.078 234.484C250.161 235.922 250.24 237.354 250.307 238.791C250.339 239.182 250.214 239.515 249.922 239.786C249.474 239.468 249.531 238.984 249.495 238.562C249.286 236.156 248.703 233.833 247.984 231.541C247.859 231.177 247.813 230.708 247.104 230.724C247.469 232.937 247.87 235.125 247.969 237.343C248.068 239.5 248.495 241.666 248.026 243.807C247.474 243.854 247.568 243.489 247.536 243.265C247.276 241.494 246.854 239.771 246.266 238.083C246.135 237.744 245.984 237.458 245.453 237.489C245.865 240.125 246.458 242.76 245.917 245.687C244.906 240.468 244.906 240.468 243.964 239.771C244.219 242.609 244.536 245.369 244.521 248.203C243.443 247.734 243.438 247.734 242.667 247.765C243.146 246.797 242.922 245.755 242.922 244.744C242.958 242.083 242.844 239.422 243.276 236.755ZM242.693 250.244C242.385 249.307 243.036 248.515 242.672 247.781C243.073 248.515 243.589 249.244 242.693 250.244ZM237.578 256.166C239.151 255.052 240.891 254.573 242.802 254.739C241.151 255.5 239.38 255.89 237.573 256.166H237.578ZM269.745 260.869C272.271 262.109 276.505 264.76 277.536 265.729C276.604 266.156 275.068 266.146 272.948 265.651C272.734 265.385 273.031 265.146 272.964 264.765C272.24 264.338 271.448 264.771 270.682 264.797C269.911 264.823 269.219 264.885 268.313 264.948C269.146 264.015 270.469 264.291 270.995 263.255C270.552 262.843 270.078 263.052 269.625 263.151C268.297 263.463 266.948 263.661 265.589 263.755C264.776 263.786 264.776 263.786 263.594 262.979C265.833 262.26 267.927 261.885 269.74 260.869H269.745ZM261.516 253.578C263.089 255.093 264.552 256.724 266.286 258.067C266.932 258.567 267.589 259.057 268.224 259.557C268.427 259.718 268.708 259.838 268.635 260.359C267.729 260.771 266.661 260.932 265.615 261.125C264.333 261.343 263.052 261.484 261.766 261.661C261.068 261.76 260.417 261.708 259.948 261.067C260.089 260.338 261.125 260.625 261.234 259.76C260 259.286 258.484 260.276 257.141 259.177C258.156 258.468 259.26 258.291 260.193 257.776C261.078 257.286 262.089 256.989 262.714 256.109C262.536 255.588 262.177 255.765 261.901 255.906C260.474 256.588 258.984 257.083 257.438 257.39C256.917 257.505 256.359 257.557 255.823 257.64C255.052 257.771 254.333 257.672 253.724 257.119C253.276 256.718 252.646 256.521 252.286 255.854C253.979 254.562 256.245 254.182 257.844 252.51C257.214 252.125 256.797 252.453 256.417 252.619C254.729 253.385 252.99 253.994 251.198 254.442C250.865 254.521 250.531 254.604 250.198 254.651C249.885 254.692 249.656 254.578 249.516 254.297C249.422 253.776 250.344 253.739 250.031 253.041C249.083 252.854 248.12 253.593 247.005 253.182C248.432 252.073 250.26 251.843 251.542 250.672C251.365 250.156 251.01 250.276 250.698 250.396C248.635 251.125 246.578 251.859 244.521 252.609C243.693 252.922 242.87 253.271 241.833 252.838C243.339 251.724 244.766 250.703 246.385 249.984C247.729 249.422 249.13 249.166 250.583 249.218C254.786 249.255 258.458 250.64 261.516 253.578ZM327.401 251.547C325.156 251.838 322.911 251.922 320.656 251.786C316.083 251.562 311.526 251.734 306.979 252.291C303.807 252.661 300.719 252.323 297.646 251.656C296.776 251.468 295.922 251.239 295.068 251C289.885 249.552 284.708 248.057 279.693 246.073C277.547 245.218 275.448 244.224 273.318 243.307C272.469 242.942 271.583 242.619 270.49 242.187C271.495 241.541 272.229 241.359 273.099 241.916C273.823 242.38 274.542 242.896 275.438 243.192C275.661 242.041 274.344 241.916 274.328 241.052C275.344 241.187 275.344 241.182 276.797 242.125C277.599 242.646 278.401 243.161 279.198 243.698C279.99 244.234 280.625 244.916 281.573 245.479C281.25 243.911 280.797 243.406 277.13 240.422C277.297 239.922 277.625 240.125 277.896 240.26C279.406 241.067 280.807 242.036 282.094 243.161C282.427 243.448 282.698 243.906 283.323 243.807C283.224 242.802 282.443 242.276 281.865 241.646C281.318 241.041 280.698 240.51 280.115 239.958C280.328 239.494 280.568 239.75 280.766 239.875C282.964 241.265 285.068 242.771 286.755 244.786C286.896 244.989 287.083 245.067 287.328 245.026C287.745 244.656 287.354 244.281 287.172 244.015C286.255 242.729 285.214 241.557 284.047 240.505C283.661 240.135 283.135 239.89 282.932 239.208C283.854 239.026 284.792 238.932 285.734 238.927C286.255 238.916 286.641 239.187 287.026 239.474C287.896 240.125 288.76 240.797 289.635 241.448C289.953 241.682 290.224 242.041 290.807 241.901C290.719 240.692 289.432 240.302 289.031 239.328C289.323 238.708 289.661 239.047 289.974 239.286C292.464 241.323 294.776 243.541 296.74 246.099C296.906 246.307 297.083 246.51 297.271 246.703C297.307 246.744 297.391 246.744 297.453 246.765C297.917 246.224 297.474 245.791 297.229 245.401C296.12 243.677 294.87 242.062 293.474 240.562C293.115 240.172 292.615 239.896 292.51 239.307C292.792 238.963 293.005 239.276 293.161 239.396C295.906 241.463 298.214 243.979 300.339 246.651C300.76 247.187 301.177 247.729 301.609 248.26C301.745 248.416 301.927 248.494 302.266 248.323C301.708 246.635 300.563 245.286 299.542 243.885C298.516 242.484 297.443 241.224 296.391 239.896C296.495 239.791 296.594 239.619 296.667 239.625C297.641 239.739 298.641 239.76 299.401 240.5C299.208 240.484 299.042 240.531 298.891 240.651C298.74 240.771 298.651 240.927 298.62 241.114C300.87 244.083 303.125 247.057 305.385 250.031C305.443 250.104 305.615 250.067 305.75 250.093C305.781 250.041 305.844 249.984 305.839 249.942C305.802 249.677 305.745 249.416 305.656 249.166C304.661 246.823 303.349 244.677 301.708 242.734C301.297 242.234 300.719 241.838 300.573 241.14C301.401 241.218 301.74 241.948 302.193 242.468C303.932 244.463 305.521 246.573 306.958 248.802C307.255 249.271 307.375 249.974 308.089 250.151C308.12 249.067 308.156 249.047 307.844 248.474C307.036 246.989 306.203 245.51 305.349 244.041C305.156 243.703 304.885 243.401 304.833 242.994C305.563 242.906 305.76 243.625 306.219 243.953C306.63 244.244 306.844 244.869 307.521 244.75C307.87 244.114 307.005 243.833 307.125 243.265C307.281 242.979 307.281 242.979 308.51 243.614C308.922 244.041 308.214 244.281 308.339 244.708C308.464 245.135 308.74 245.416 308.969 245.744C309.802 246.911 310.635 248.073 311.469 249.229C311.656 249.489 311.813 249.807 312.313 249.817C312.469 248.661 311.875 247.823 311.411 246.963C310.969 246.151 310.479 245.364 309.818 244.244C311.672 245.156 312.292 246.812 313.542 247.765C314.339 247.625 313.646 246.901 314.094 246.562C315.401 247.526 316.188 249.031 317.365 250.088C317.807 250.021 317.802 249.755 317.724 249.474C317.609 249.093 317.25 248.781 317.448 248.297C318.839 248.489 319.911 249.718 321.417 249.51C321.469 249.505 321.505 249.416 321.573 249.338C321.458 249.182 321.323 249.041 321.172 248.922C315.979 245.776 310.714 242.781 305.047 240.526C298.719 238.005 292.172 237.146 285.401 237.531C282.125 237.724 278.885 238.177 275.682 238.901C275.411 238.958 275.146 238.958 274.875 238.896C277.557 237.718 280.266 236.661 283.161 236.192C289.87 235.114 296.448 235.369 302.938 237.63C307.719 239.291 312.245 241.489 316.516 244.224C318.12 245.25 319.724 246.286 321.313 247.359C323.073 248.547 324.974 249.474 326.854 250.448C327.26 250.656 327.786 250.713 328 251.224C327.953 251.583 327.625 251.515 327.396 251.547H327.401ZM299.646 240.531C300.063 240.474 300.417 240.536 300.521 241.062C300.104 241.088 299.932 240.713 299.646 240.526V240.531ZM304.333 242.062C304.589 242.297 304.828 242.536 304.807 242.916C304.344 242.797 304.302 242.448 304.328 242.067L304.333 242.062Z" fill="#231F20"/>
</g>
</g>
</g>
</g>
<mask id="mask5_344_362" style="mask-type:luminance" maskUnits="userSpaceOnUse" x="284" y="239" width="11" height="11">
<path d="M284 239H294.667V249.667H284V239Z" fill="white"/>
</mask>
<g mask="url(#mask5_344_362)">
<mask id="mask6_344_362" style="mask-type:luminance" maskUnits="userSpaceOnUse" x="207" y="169" width="140" height="142">
<path d="M242.114 169.213L346.854 203.417L312.047 310.021L207.307 275.823L242.114 169.213Z" fill="white"/>
</mask>
<g mask="url(#mask6_344_362)">
<mask id="mask7_344_362" style="mask-type:luminance" maskUnits="userSpaceOnUse" x="207" y="169" width="140" height="142">
<path d="M242.114 169.213L346.854 203.417L312.047 310.021L207.307 275.823L242.114 169.213Z" fill="white"/>
</mask>
<g mask="url(#mask7_344_362)">
<mask id="mask8_344_362" style="mask-type:luminance" maskUnits="userSpaceOnUse" x="207" y="169" width="140" height="142">
<path d="M242.114 169.213L346.854 203.417L312.047 310.021L207.307 275.823L242.114 169.213Z" fill="white"/>
</mask>
<g mask="url(#mask8_344_362)">
<path d="M293.703 247.776C292.505 245.958 291.25 244.177 289.688 242.661C288.813 241.817 287.844 241.062 286.901 240.286C286.537 239.968 286.109 239.786 285.625 239.739C285.391 239.724 285.135 240.067 285.182 240.307C285.281 240.755 285.609 241 285.917 241.255C288.651 243.494 291.141 245.984 293.385 248.724C293.537 248.906 293.719 249.187 294.063 249.041C294.333 248.51 293.932 248.125 293.703 247.776Z" fill="#231F20"/>
</g>
</g>
</g>
</g>
<mask id="mask9_344_362" style="mask-type:luminance" maskUnits="userSpaceOnUse" x="297" y="204" width="5" height="10">
<path d="M297.333 204.333H301.333V213.667H297.333V204.333Z" fill="white"/>
</mask>
<g mask="url(#mask9_344_362)">
<mask id="mask10_344_362" style="mask-type:luminance" maskUnits="userSpaceOnUse" x="207" y="169" width="140" height="142">
<path d="M242.115 169.214L346.854 203.417L312.047 310.021L207.308 275.823L242.115 169.214Z" fill="white"/>
</mask>
<g mask="url(#mask10_344_362)">
<mask id="mask11_344_362" style="mask-type:luminance" maskUnits="userSpaceOnUse" x="207" y="169" width="140" height="142">
<path d="M242.115 169.214L346.854 203.417L312.047 310.021L207.308 275.823L242.115 169.214Z" fill="white"/>
</mask>
<g mask="url(#mask11_344_362)">
<mask id="mask12_344_362" style="mask-type:luminance" maskUnits="userSpaceOnUse" x="207" y="169" width="140" height="142">
<path d="M242.115 169.214L346.854 203.417L312.047 310.021L207.308 275.823L242.115 169.214Z" fill="white"/>
</mask>
<g mask="url(#mask12_344_362)">
<path d="M299.594 211.932C300.485 209.844 300.886 207.641 301.037 205.385C301.052 205.177 300.922 205 300.537 205.052C299.87 207.396 298.943 209.719 298.583 212.26C299.266 212.552 299.469 212.229 299.594 211.932Z" fill="#231F20"/>
</g>
</g>
</g>
</g>
<mask id="mask13_344_362" style="mask-type:luminance" maskUnits="userSpaceOnUse" x="249" y="225" width="5" height="9">
<path d="M249.333 225.667H253.333V233.667H249.333V225.667Z" fill="white"/>
</mask>
<g mask="url(#mask13_344_362)">
<mask id="mask14_344_362" style="mask-type:luminance" maskUnits="userSpaceOnUse" x="207" y="169" width="140" height="142">
<path d="M242.115 169.213L346.854 203.417L312.047 310.021L207.308 275.823L242.115 169.213Z" fill="white"/>
</mask>
<g mask="url(#mask14_344_362)">
<mask id="mask15_344_362" style="mask-type:luminance" maskUnits="userSpaceOnUse" x="207" y="169" width="140" height="142">
<path d="M242.115 169.213L346.854 203.417L312.047 310.021L207.308 275.823L242.115 169.213Z" fill="white"/>
</mask>
<g mask="url(#mask15_344_362)">
<mask id="mask16_344_362" style="mask-type:luminance" maskUnits="userSpaceOnUse" x="207" y="169" width="140" height="142">
<path d="M242.115 169.213L346.854 203.417L312.047 310.021L207.308 275.823L242.115 169.213Z" fill="white"/>
</mask>
<g mask="url(#mask16_344_362)">
<path d="M252.037 231.474C251.823 229.765 251.391 228.119 250.735 226.536C250.662 226.354 250.428 226.093 250.047 226.416C250.48 228.536 250.485 230.791 251.448 233.005C251.698 232.838 251.875 232.609 251.98 232.333C252.089 232.052 252.105 231.765 252.037 231.474Z" fill="#231F20"/>
</g>
</g>
</g>
</g>
<mask id="mask17_344_362" style="mask-type:luminance" maskUnits="userSpaceOnUse" x="254" y="253" width="6" height="5">
<path d="M254.667 253.667H260V257.667H254.667V253.667Z" fill="white"/>
</mask>
<g mask="url(#mask17_344_362)">
<mask id="mask18_344_362" style="mask-type:luminance" maskUnits="userSpaceOnUse" x="207" y="169" width="140" height="142">
<path d="M242.114 169.213L346.854 203.417L312.047 310.021L207.307 275.823L242.114 169.213Z" fill="white"/>
</mask>
<g mask="url(#mask18_344_362)">
<mask id="mask19_344_362" style="mask-type:luminance" maskUnits="userSpaceOnUse" x="207" y="169" width="140" height="142">
<path d="M242.114 169.213L346.854 203.417L312.047 310.021L207.307 275.823L242.114 169.213Z" fill="white"/>
</mask>
<g mask="url(#mask19_344_362)">
<mask id="mask20_344_362" style="mask-type:luminance" maskUnits="userSpaceOnUse" x="207" y="169" width="140" height="142">
<path d="M242.114 169.213L346.854 203.417L312.047 310.021L207.307 275.823L242.114 169.213Z" fill="white"/>
</mask>
<g mask="url(#mask20_344_362)">
<path d="M255.094 255.781C254.99 255.948 254.943 256.125 254.953 256.317C254.974 256.427 255.026 256.51 255.109 256.573C255.198 256.635 255.297 256.656 255.401 256.635C256.505 256.536 257.453 256.005 258.391 255.448C258.661 255.291 259.026 255.166 258.958 254.505C257.745 254.666 256.667 255.067 255.578 255.432C255.38 255.5 255.219 255.619 255.094 255.781Z" fill="#231F20"/>
</g>
</g>
</g>
</g>
<mask id="mask21_344_362" style="mask-type:luminance" maskUnits="userSpaceOnUse" x="134" y="256" width="128" height="67">
<path d="M134.667 256.333H261.333V323H134.667V256.333Z" fill="white"/>
</mask>
<g mask="url(#mask21_344_362)">
<mask id="mask22_344_362" style="mask-type:luminance" maskUnits="userSpaceOnUse" x="135" y="217" width="145" height="144">
<path d="M209.718 217.042L279.453 290.558L205.224 360.969L135.489 287.453L209.718 217.042Z" fill="white"/>
</mask>
<g mask="url(#mask22_344_362)">
<mask id="mask23_344_362" style="mask-type:luminance" maskUnits="userSpaceOnUse" x="135" y="217" width="145" height="144">
<path d="M209.718 217.042L279.453 290.558L205.224 360.969L135.489 287.453L209.718 217.042Z" fill="white"/>
</mask>
<g mask="url(#mask23_344_362)">
<mask id="mask24_344_362" style="mask-type:luminance" maskUnits="userSpaceOnUse" x="135" y="217" width="145" height="144">
<path d="M209.718 217.042L279.453 290.558L205.224 360.969L135.489 287.453L209.718 217.042Z" fill="white"/>
</mask>
<g mask="url(#mask24_344_362)">
<path d="M245.692 321.188C245.515 320.787 245.291 320.417 245.026 320.068C242.406 316.745 240.583 312.948 238.515 309.292C236.567 305.849 234.453 302.516 231.802 299.547C228.395 295.74 224.734 292.282 220.052 290.016C216.588 288.339 213.057 286.948 209.223 286.391C207.812 286.188 206.401 285.964 204.984 285.74C205.036 285.37 205.302 285.282 205.526 285.224C208.182 284.459 210.723 283.381 213.229 282.224C213.63 282.047 214.052 281.943 214.489 281.901C215.614 281.766 216.744 281.771 217.869 281.912C219.484 282.12 221.088 282.417 222.671 282.808C225.479 283.495 228.328 283.875 231.218 283.959C235.088 284.058 238.859 283.646 242.343 281.797C246.661 279.5 251.213 277.683 255.651 275.662C256.843 275.099 258.005 274.474 259.135 273.792C259.677 273.474 260.161 273.084 260.588 272.625C261.161 271.995 261.057 271.177 260.421 270.625C260.14 270.375 259.828 270.172 259.484 270.006C258.588 269.552 257.661 269.183 256.692 268.891C255.302 268.516 253.932 268.063 252.541 267.683C247.192 266.203 241.833 265.756 236.416 267.37C233.531 268.224 230.64 269.047 227.791 269.995C224.161 271.193 221.145 273.209 218.869 276.261C217.734 277.787 216.333 279.011 214.656 279.922C213.781 280.407 212.89 280.87 211.989 281.308C208.192 283.157 204.177 284.36 200.078 285.318C198.052 285.792 195.999 285.959 193.921 285.813C193.359 285.776 192.791 285.776 192.234 285.73C189.921 285.552 187.598 285.49 185.317 285.011C183.932 284.724 183.572 284.532 182.515 283.459C182.796 283.032 183.281 283.094 183.687 282.99C187.499 282.026 190.744 280.105 193.421 277.23C196.036 274.443 198.885 271.891 201.64 269.245C203.052 267.907 204.526 266.651 206.067 265.469C208.046 263.927 210.026 262.386 211.828 260.641C212.244 260.261 212.619 259.844 212.963 259.396C213.583 258.511 213.307 257.693 212.286 257.302C211.869 257.167 211.447 257.063 211.015 257.006C210.14 256.839 209.255 256.917 208.39 257.006C206.083 257.245 203.781 257.5 201.479 257.771C200.484 257.886 199.494 258.047 198.515 258.261C193.635 259.318 189.255 261.323 185.692 264.938C182.203 268.48 178.999 272.214 176.901 276.782C176.645 277.355 176.359 277.912 176.041 278.448C175.307 279.688 174.536 280.901 173.406 281.844C172.687 282.495 171.838 282.855 170.869 282.922C169.244 283.021 167.624 283.193 165.999 283.297C164.874 283.375 163.739 283.381 162.624 283.448C162.411 283.453 162.244 283.547 162.124 283.719C158.63 283.526 155.14 283.599 151.661 283.948C146.588 284.422 141.057 285.084 136.302 286.959C136.145 287.006 136.031 287.099 135.953 287.245C135.88 287.386 135.864 287.537 135.911 287.693C135.958 287.849 136.052 287.964 136.197 288.042C136.338 288.115 136.489 288.131 136.64 288.084C139.229 287.646 141.765 286.927 144.348 286.453C146.864 285.985 149.401 285.636 151.953 285.407C156.093 285.026 160.265 284.985 164.427 284.995C166.218 286.006 168.166 286.521 170.13 287.006C171.776 287.412 173.401 287.912 175.067 288.209C176.64 288.49 177.656 289.328 178.348 290.709C178.911 291.828 179.557 292.907 180.151 294.016C181.401 296.334 182.64 298.667 183.911 300.969C185.072 303 186.51 304.808 188.229 306.391C190.223 308.297 192.515 309.855 194.869 311.302C195.51 311.73 196.213 311.98 196.979 312.047C197.156 312.058 197.322 312.032 197.484 311.969C197.651 311.907 197.791 311.813 197.911 311.688C198.031 311.563 198.124 311.417 198.182 311.25C198.239 311.089 198.26 310.917 198.244 310.745C198.213 310.365 198.124 310 197.973 309.646C197.708 309.078 197.416 308.526 197.098 307.985C196.005 306.078 194.869 304.198 193.822 302.271C192.343 299.495 191.197 296.584 190.39 293.542C189.786 291.328 188.749 289.349 187.27 287.589C187.088 287.365 186.781 287.177 186.973 286.625C190.088 286.938 193.145 287.172 196.218 287.188C196.859 287.198 197.442 287.396 197.963 287.782C199.354 288.766 200.645 289.844 201.692 291.193C202.999 292.881 204.26 294.61 205.635 296.224C209.447 300.646 213.52 304.813 217.854 308.73C219.994 310.677 222.348 312.334 225.062 313.422C229.083 315.032 233.005 316.839 236.713 319.094C238.739 320.365 240.874 321.407 243.13 322.209C243.656 322.427 244.197 322.558 244.765 322.589C245.588 322.594 246.031 321.938 245.692 321.188ZM227.848 271.469C230.567 270.516 233.354 269.776 236.093 268.912C241.484 267.235 246.838 267.5 252.197 269.006C253.828 269.464 255.447 269.964 257.062 270.459C257.89 270.714 258.708 271.006 259.333 271.568C259.369 272.026 259.104 272.209 258.843 272.375C257.572 273.183 256.244 273.886 254.864 274.485C250.567 276.375 246.192 278.089 242.041 280.308C239.166 281.844 236.072 282.495 232.817 282.5C231.124 282.511 229.437 282.433 227.755 282.276C226.953 282.193 226.161 282.011 225.364 281.875C225.463 281.318 225.838 281.459 226.093 281.412C228.374 281.021 230.682 280.839 232.963 280.412C238.286 279.407 243.39 277.73 248.27 275.386C250.13 274.495 252.072 273.771 253.973 272.964C254.302 272.823 254.713 272.792 254.859 272.276C254.291 271.855 253.697 272.136 253.119 272.25C252.447 272.386 251.765 272.516 251.104 272.703C250.52 272.875 249.958 273.125 249.281 273.386C249.39 272.11 250.552 271.339 250.359 270.136C250.104 269.969 249.911 270.042 249.76 270.287C248.541 272.209 247.02 273.849 245.203 275.219C244.677 274.74 245.541 274.245 244.958 273.776C243.776 274.683 242.791 275.933 241.166 276.86C241.64 275.787 242.385 275.292 242.838 274.584C243.343 273.792 243.927 273.047 244.354 272.219C244.739 271.485 245.359 270.813 245.296 269.693C244.624 270.021 244.432 270.427 244.203 270.787C242.744 273.084 240.838 274.969 238.885 276.828C238.02 277.698 236.984 278.235 235.776 278.433C235.119 278.537 234.473 278.792 233.578 278.735C234.296 277.667 235.223 277.021 235.88 276.151C236.604 275.209 237.359 274.287 238.01 273.297C238.598 272.381 239.411 271.552 239.687 270.469C239.395 270.136 239.192 270.328 239.036 270.5C237.708 272 236.374 273.495 235.078 275.016C233.723 276.589 232.171 277.948 230.588 279.271C230.453 279.401 230.281 279.459 230.031 279.219C230.656 278.162 232.005 277.61 232.447 276.365C231.984 276.078 231.776 276.365 231.546 276.537C230.229 277.495 228.921 278.459 227.614 279.427C227.114 279.797 227.119 279.802 225.994 279.875C226.124 279.308 226.635 279.12 226.958 278.802C227.359 278.407 227.796 278.047 228.208 277.657C228.572 277.308 228.937 276.964 229.265 276.589C229.645 276.172 229.999 275.74 230.348 275.297C230.661 274.901 230.953 274.5 231.239 274.084C231.562 273.62 231.859 273.146 232.177 272.672C232.453 272.261 232.776 271.87 232.677 271.323C232.291 271.162 232.109 271.427 231.911 271.662C230.385 273.485 228.76 275.224 227.041 276.865C226.291 277.578 225.552 278.318 224.296 278.985C224.864 277.901 225.578 277.381 226.067 276.688C226.499 276.073 227.203 275.578 227.13 274.511C226.333 274.959 225.942 275.62 225.395 276.105C224.843 276.589 224.291 277.125 223.713 277.605C223.135 278.078 222.531 278.532 221.906 278.948C221.286 279.37 220.796 279.933 220.083 280.146C219.776 279.855 219.921 279.672 220.104 279.485C221.302 278.209 222.505 276.933 223.692 275.651C223.984 275.339 224.364 275.058 224.057 274.427C222.197 275.73 220.812 277.552 218.895 278.756C218.64 278.355 219.015 278.193 219.166 278C219.786 277.214 220.442 276.459 221.093 275.698C222.921 273.636 225.26 272.365 227.838 271.464L227.848 271.469ZM181.427 271.849C183.505 269.094 185.838 266.573 188.416 264.282C190.13 262.776 192.166 261.782 194.255 260.922C195.994 260.188 197.802 259.683 199.671 259.412C202.776 259.006 205.885 258.662 208.994 258.313C209.619 258.261 210.244 258.25 210.869 258.287C211.171 258.292 211.499 258.328 211.697 258.651C211.583 259.25 211.067 259.558 210.656 259.907C208.89 261.401 207.13 262.917 205.296 264.328C203.499 265.698 201.791 267.162 200.161 268.724C197.546 271.24 194.822 273.641 192.343 276.302C189.479 279.381 185.885 281.188 181.765 281.98C181.666 281.995 181.546 281.912 181.432 281.875C181.432 281.828 181.416 281.756 181.437 281.745C185.114 279.683 188.354 277.021 191.52 274.266C192.38 273.537 193.192 272.756 193.953 271.922C196.901 268.568 200.39 265.813 203.932 263.12C204.427 262.74 204.937 262.375 205.432 261.99C205.619 261.844 205.828 261.672 205.677 261.256C204.812 261.365 204.151 261.948 203.421 262.355C202.687 262.761 202.041 263.183 201.401 263.568C200.874 263.323 201.104 262.99 201.14 262.719C201.218 262.105 201.421 261.48 200.973 260.933C200.63 260.881 200.536 261.089 200.479 261.339C200.187 262.495 199.812 263.62 199.031 264.662C198.598 264.193 199.208 263.573 198.781 263.167C198.677 263.172 198.499 263.146 198.473 263.193C197.984 264.063 197.541 264.964 197.151 265.881C196.713 267.011 196.026 267.959 195.083 268.724C194.807 268.953 194.557 269.224 194.187 269.599C194.026 268.917 194.328 268.49 194.421 268.042C194.515 267.547 194.666 267.068 194.765 266.578C194.88 266.026 194.979 265.469 195.057 264.912C195.119 264.417 195.13 263.912 195.187 263.417C195.249 262.922 195.276 262.438 195.01 262.026C194.562 261.959 194.562 262.256 194.526 262.485C194.041 265.938 192.734 269.115 191.234 272.224C190.697 273.339 189.651 274.245 188.317 274.922C188.104 274.177 188.744 273.49 188.453 272.745C188.145 272.594 188.015 272.766 187.901 273.016C187.348 274.203 186.786 275.391 186.218 276.573C186.078 276.907 185.833 277.115 185.479 277.209C185.255 276.756 185.51 276.391 185.661 276.032C186.541 274.011 187.072 271.886 187.484 269.73C187.541 269.381 187.708 268.985 187.124 268.683C186.463 270.62 185.838 272.558 184.958 274.386C184.104 276.162 183.515 278.094 182.213 279.605C181.744 279.401 181.979 279.146 182.046 278.953C182.604 277.417 183.01 275.844 183.265 274.23C183.307 273.901 183.312 273.605 182.869 273.396C182.057 275.698 181.395 278.073 179.692 280.188C181.135 275.552 181.135 275.552 180.677 274.578C179.656 276.969 178.713 279.328 177.479 281.599C176.812 280.75 176.807 280.745 176.166 280.433C176.979 279.865 177.244 278.927 177.687 278.12C178.864 275.995 179.927 273.802 181.427 271.849ZM175.119 282.443C175.276 281.547 176.145 281.203 176.166 280.448C176.177 281.214 176.276 282.026 175.119 282.438V282.443ZM168.432 284.953C170.182 284.745 171.791 285.125 173.26 286.094C171.604 285.985 169.999 285.516 168.427 284.948L168.432 284.953ZM192.348 302.865C193.854 304.974 196.124 308.964 196.536 310.193C195.604 310.131 194.364 309.443 192.869 308.12C192.812 307.808 193.156 307.745 193.265 307.412C192.864 306.75 192.041 306.75 191.411 306.433C190.781 306.115 190.192 305.865 189.432 305.516C190.51 305.131 191.453 305.933 192.328 305.334C192.151 304.808 191.677 304.766 191.27 304.646C190.062 304.313 188.89 303.886 187.749 303.36C187.078 303.026 187.078 303.026 186.479 301.86C188.593 302.266 190.447 302.886 192.348 302.865ZM188.869 293.391C189.484 295.297 189.958 297.25 190.776 299.094C191.083 299.782 191.395 300.459 191.692 301.141C191.791 301.36 191.963 301.578 191.682 301.964C190.765 301.901 189.838 301.563 188.911 301.256C187.781 300.87 186.682 300.417 185.572 299.995C184.963 299.766 184.463 299.443 184.359 298.719C184.791 298.198 185.499 298.886 185.963 298.235C185.177 297.313 183.52 297.443 182.911 295.964C184.036 295.844 185.005 296.188 185.984 296.177C186.911 296.177 187.854 296.381 188.739 295.948C188.822 295.453 188.453 295.438 188.171 295.427C186.723 295.349 185.307 295.094 183.927 294.662C183.453 294.521 182.984 294.318 182.515 294.151C181.838 293.917 181.302 293.521 181.046 292.808C180.859 292.292 180.437 291.86 180.437 291.162C182.359 290.87 184.354 291.558 186.364 290.917C186.026 290.328 185.546 290.407 185.166 290.375C183.473 290.256 181.807 289.98 180.166 289.547C179.864 289.469 179.562 289.386 179.27 289.276C178.999 289.177 178.864 288.98 178.869 288.693C179.02 288.235 179.781 288.61 179.833 287.912C179.145 287.344 178.052 287.511 177.328 286.693C178.963 286.427 180.536 287.047 182.078 286.672C182.156 286.177 181.817 286.115 181.51 286.078C179.531 285.756 177.557 285.443 175.572 285.146C174.77 285.026 173.953 284.948 173.307 284.146C174.999 283.912 176.593 283.714 178.213 283.849C179.541 283.99 180.781 284.396 181.932 285.078C185.307 286.953 187.671 289.683 188.864 293.386L188.869 293.391ZM242.916 320.703C240.984 319.953 239.135 319.032 237.374 317.933C233.781 315.745 230.026 313.875 226.114 312.328C223.395 311.23 221.052 309.605 218.854 307.719C218.239 307.188 217.645 306.625 217.062 306.058C213.505 302.615 209.979 299.136 206.786 295.339C205.421 293.714 204.161 291.985 202.838 290.318C202.307 289.651 201.734 289 201.036 288.172C202.135 288.094 202.802 288.271 203.26 289.105C203.645 289.792 204.005 290.526 204.598 291.157C205.276 290.328 204.265 289.646 204.624 288.948C205.39 289.5 205.39 289.5 206.156 290.896C206.578 291.662 207.005 292.433 207.411 293.214C207.822 293.995 208.036 294.823 208.562 295.693C208.979 294.287 208.828 293.683 207.161 289.672C207.51 289.344 207.692 289.651 207.848 289.881C208.718 291.193 209.432 292.584 209.984 294.058C210.13 294.433 210.151 294.922 210.697 295.115C211.052 294.261 210.645 293.495 210.453 292.735C210.276 292.011 209.999 291.308 209.77 290.61C210.14 290.334 210.223 290.641 210.333 290.834C211.505 292.912 212.552 295.047 213.041 297.412C213.067 297.631 213.187 297.782 213.401 297.855C213.895 297.74 213.744 297.266 213.713 296.969C213.531 295.537 213.197 294.141 212.708 292.776C212.557 292.308 212.239 291.881 212.369 291.245C213.197 291.506 213.989 291.839 214.749 292.25C215.177 292.469 215.374 292.86 215.557 293.256C215.984 294.162 216.385 295.084 216.812 295.99C216.968 296.318 217.031 296.73 217.557 296.87C218.01 295.86 217.145 294.985 217.239 294.026C217.744 293.651 217.869 294.073 218.015 294.401C219.145 297.131 220.052 299.933 220.531 302.849C220.572 303.094 220.63 303.334 220.697 303.568C220.708 303.62 220.781 303.657 220.817 303.698C221.427 303.469 221.255 302.927 221.229 302.506C221.083 300.631 220.77 298.782 220.291 296.964C220.171 296.495 219.885 296.052 220.057 295.532C220.432 295.381 220.468 295.724 220.541 295.891C221.864 298.756 222.64 301.797 223.197 304.875C223.302 305.495 223.406 306.11 223.526 306.724C223.567 306.917 223.682 307.058 224.026 307.068C224.307 305.464 223.968 303.881 223.749 302.302C223.531 300.724 223.208 299.24 222.932 297.714C223.062 297.672 223.218 297.578 223.276 297.615C224.01 298.136 224.812 298.594 225.098 299.516C224.953 299.422 224.796 299.386 224.624 299.417C224.453 299.448 224.312 299.532 224.208 299.672C224.734 303.047 225.27 306.427 225.807 309.813C225.822 309.891 225.979 309.943 226.078 310.021C226.119 309.995 226.197 309.974 226.208 309.938C226.296 309.709 226.364 309.474 226.401 309.235C226.614 306.912 226.479 304.61 225.999 302.328C225.88 301.745 225.583 301.177 225.77 300.552C226.406 300.974 226.364 301.714 226.499 302.328C227.046 304.698 227.411 307.094 227.609 309.516C227.645 310.021 227.437 310.641 227.937 311.094C228.432 310.235 228.468 310.235 228.463 309.641C228.458 308.089 228.427 306.537 228.369 304.98C228.359 304.62 228.27 304.261 228.406 303.912C229.031 304.162 228.88 304.823 229.109 305.292C229.317 305.709 229.213 306.302 229.817 306.506C230.374 306.146 229.796 305.537 230.135 305.136C230.385 304.974 230.385 304.974 231.104 306.026C231.255 306.547 230.578 306.427 230.494 306.828C230.411 307.23 230.51 307.573 230.557 307.938C230.723 309.245 230.895 310.542 231.067 311.839C231.104 312.131 231.093 312.453 231.489 312.683C232.114 311.823 231.999 310.891 231.999 309.99C231.994 309.146 231.937 308.297 231.89 307.105C232.989 308.657 232.776 310.256 233.369 311.573C234.072 311.808 233.828 310.922 234.338 310.849C234.973 312.198 234.958 313.75 235.453 315.12C235.838 315.261 235.947 315.047 236.01 314.787C236.078 314.427 235.921 314.021 236.291 313.714C237.333 314.48 237.661 315.943 238.968 316.438C239.015 316.453 239.083 316.396 239.171 316.365C239.145 316.188 239.098 316.021 239.031 315.855C236.197 311.042 233.239 306.323 229.645 302.021C225.63 297.214 220.718 293.646 215.088 290.985C212.364 289.698 209.552 288.641 206.656 287.813C206.411 287.74 206.197 287.62 206.005 287.453C208.677 287.688 211.322 288.026 213.859 288.922C219.744 291.006 224.937 294.099 229.197 298.766C232.338 302.203 235.041 305.959 237.302 310.032C238.156 311.563 238.999 313.099 239.817 314.662C240.723 316.391 241.859 317.969 242.953 319.578C243.192 319.922 243.593 320.203 243.541 320.703C243.348 320.974 243.114 320.776 242.916 320.698V320.703ZM225.286 299.651C225.651 299.792 225.906 299.995 225.76 300.459C225.411 300.302 225.437 299.922 225.286 299.646V299.651ZM228.406 302.943C228.51 303.24 228.604 303.542 228.416 303.839C228.098 303.537 228.213 303.24 228.401 302.943H228.406Z" fill="#231F20"/>
</g>
</g>
</g>
</g>
<mask id="mask25_344_362" style="mask-type:luminance" maskUnits="userSpaceOnUse" x="213" y="292" width="6" height="13">
<path d="M213.333 292.333H218.667V304.333H213.333V292.333Z" fill="white"/>
</mask>
<g mask="url(#mask25_344_362)">
<mask id="mask26_344_362" style="mask-type:luminance" maskUnits="userSpaceOnUse" x="135" y="217" width="145" height="144">
<path d="M209.719 217.042L279.453 290.558L205.224 360.969L135.49 287.453L209.719 217.042Z" fill="white"/>
</mask>
<g mask="url(#mask26_344_362)">
<mask id="mask27_344_362" style="mask-type:luminance" maskUnits="userSpaceOnUse" x="135" y="217" width="145" height="144">
<path d="M209.719 217.042L279.453 290.558L205.224 360.969L135.49 287.453L209.719 217.042Z" fill="white"/>
</mask>
<g mask="url(#mask27_344_362)">
<mask id="mask28_344_362" style="mask-type:luminance" maskUnits="userSpaceOnUse" x="135" y="217" width="145" height="144">
<path d="M209.719 217.042L279.453 290.558L205.224 360.969L135.49 287.453L209.719 217.042Z" fill="white"/>
</mask>
<g mask="url(#mask28_344_362)">
<path d="M217.354 302.865C217.177 300.88 216.932 298.896 216.328 296.99C215.99 295.922 215.531 294.896 215.109 293.859C214.948 293.443 214.682 293.109 214.313 292.859C214.13 292.74 213.776 292.906 213.714 293.12C213.599 293.521 213.755 293.859 213.891 294.198C215.13 297.203 216.063 300.297 216.688 303.484C216.729 303.698 216.755 304.005 217.099 304.042C217.547 303.729 217.391 303.245 217.354 302.865Z" fill="#231F20"/>
</g>
</g>
</g>
</g>
<mask id="mask29_344_362" style="mask-type:luminance" maskUnits="userSpaceOnUse" x="236" y="271" width="7" height="7">
<path d="M236 271H242.667V277.667H236V271Z" fill="white"/>
</mask>
<g mask="url(#mask29_344_362)">
<mask id="mask30_344_362" style="mask-type:luminance" maskUnits="userSpaceOnUse" x="135" y="217" width="145" height="144">
<path d="M209.719 217.042L279.453 290.557L205.224 360.969L135.49 287.453L209.719 217.042Z" fill="white"/>
</mask>
<g mask="url(#mask30_344_362)">
<mask id="mask31_344_362" style="mask-type:luminance" maskUnits="userSpaceOnUse" x="135" y="217" width="145" height="144">
<path d="M209.719 217.042L279.453 290.557L205.224 360.969L135.49 287.453L209.719 217.042Z" fill="white"/>
</mask>
<g mask="url(#mask31_344_362)">
<mask id="mask32_344_362" style="mask-type:luminance" maskUnits="userSpaceOnUse" x="135" y="217" width="145" height="144">
<path d="M209.719 217.042L279.453 290.557L205.224 360.969L135.49 287.453L209.719 217.042Z" fill="white"/>
</mask>
<g mask="url(#mask32_344_362)">
<path d="M237.625 276.64C239.245 275.349 240.521 273.755 241.62 272.01C241.719 271.849 241.688 271.651 241.36 271.521C239.808 273.114 238.052 274.573 236.667 276.458C237.084 276.994 237.391 276.823 237.625 276.64Z" fill="#231F20"/>
</g>
</g>
</g>
</g>
<mask id="mask33_344_362" style="mask-type:luminance" maskUnits="userSpaceOnUse" x="189" y="265" width="3" height="9">
<path d="M189.333 265.667H192V273.667H189.333V265.667Z" fill="white"/>
</mask>
<g mask="url(#mask33_344_362)">
<mask id="mask34_344_362" style="mask-type:luminance" maskUnits="userSpaceOnUse" x="135" y="217" width="145" height="144">
<path d="M209.719 217.042L279.453 290.557L205.224 360.969L135.49 287.453L209.719 217.042Z" fill="white"/>
</mask>
<g mask="url(#mask34_344_362)">
<mask id="mask35_344_362" style="mask-type:luminance" maskUnits="userSpaceOnUse" x="135" y="217" width="145" height="144">
<path d="M209.719 217.042L279.453 290.557L205.224 360.969L135.49 287.453L209.719 217.042Z" fill="white"/>
</mask>
<g mask="url(#mask35_344_362)">
<mask id="mask36_344_362" style="mask-type:luminance" maskUnits="userSpaceOnUse" x="135" y="217" width="145" height="144">
<path d="M209.719 217.042L279.453 290.557L205.224 360.969L135.49 287.453L209.719 217.042Z" fill="white"/>
</mask>
<g mask="url(#mask36_344_362)">
<path d="M190.781 271.453C191.349 269.984 191.714 268.474 191.87 266.911C191.891 266.734 191.813 266.416 191.37 266.51C190.802 268.406 189.828 270.224 189.646 272.427C189.917 272.396 190.162 272.297 190.37 272.119C190.578 271.937 190.714 271.718 190.781 271.453Z" fill="#231F20"/>
</g>
</g>
</g>
</g>
<mask id="mask37_344_362" style="mask-type:luminance" maskUnits="userSpaceOnUse" x="181" y="291" width="6" height="3">
<path d="M181.333 291H186.667V293.667H181.333V291Z" fill="white"/>
</mask>
<g mask="url(#mask37_344_362)">
<mask id="mask38_344_362" style="mask-type:luminance" maskUnits="userSpaceOnUse" x="135" y="217" width="145" height="144">
<path d="M209.719 217.042L279.453 290.557L205.224 360.969L135.49 287.453L209.719 217.042Z" fill="white"/>
</mask>
<g mask="url(#mask38_344_362)">
<mask id="mask39_344_362" style="mask-type:luminance" maskUnits="userSpaceOnUse" x="135" y="217" width="145" height="144">
<path d="M209.719 217.042L279.453 290.557L205.224 360.969L135.49 287.453L209.719 217.042Z" fill="white"/>
</mask>
<g mask="url(#mask39_344_362)">
<mask id="mask40_344_362" style="mask-type:luminance" maskUnits="userSpaceOnUse" x="135" y="217" width="145" height="144">
<path d="M209.719 217.042L279.453 290.557L205.224 360.969L135.49 287.453L209.719 217.042Z" fill="white"/>
</mask>
<g mask="url(#mask40_344_362)">
<path d="M182.73 292.338C182.573 292.422 182.459 292.547 182.386 292.708C182.355 292.802 182.36 292.891 182.401 292.979C182.448 293.068 182.516 293.13 182.61 293.161C183.547 293.568 184.542 293.552 185.537 293.516C185.823 293.51 186.167 293.573 186.401 293.005C185.355 292.604 184.313 292.453 183.271 292.271C183.084 292.24 182.907 292.26 182.73 292.338Z" fill="#231F20"/>
</g>
</g>
</g>
</g>
<path d="M25.5173 183.956C24.7516 183.956 24.1527 183.748 23.7256 183.331C23.3089 182.904 23.1006 182.305 23.1006 181.54V137.123H42.1839C45.611 137.123 48.3766 138.008 50.4756 139.769C52.5693 141.535 53.6214 143.868 53.6214 146.769V150.769C53.6214 152.868 53.2048 154.686 52.3714 156.227C51.5485 157.769 50.4235 158.946 48.9964 159.748V159.811C51.2725 160.3 53.1006 161.383 54.4756 163.061C55.861 164.727 56.5589 166.701 56.5589 168.977V172.915C56.5589 176.222 55.4391 178.889 53.2048 180.915C50.9808 182.946 48.0433 183.956 44.3923 183.956H25.5173ZM43.5173 159.269C45.835 159.269 47.6943 158.508 49.1006 156.977C50.5016 155.436 51.2048 153.368 51.2048 150.769V146.769C51.2048 144.535 50.3766 142.738 48.7256 141.373C47.0693 140.014 44.8923 139.331 42.1839 139.331H25.5173V159.269H43.5173ZM44.3923 181.748C47.2777 181.748 49.6266 180.936 51.4339 179.311C53.236 177.686 54.1423 175.555 54.1423 172.915V168.977C54.1423 166.701 53.361 164.873 51.8089 163.498C50.2516 162.113 48.1735 161.415 45.5798 161.415H25.5173V181.748H44.3923Z" fill="black"/>
<path d="M74.9295 184.346C71.6066 184.346 68.9295 183.278 66.8879 181.138C64.8566 179.002 63.8462 176.2 63.8462 172.742V162.179C63.8462 158.721 64.8774 155.924 66.9504 153.784C69.0337 151.648 71.7629 150.575 75.1379 150.575H80.0545C83.4556 150.575 86.1899 151.638 88.2629 153.763C90.3462 155.877 91.3879 158.679 91.3879 162.179V172.742C91.3879 176.242 90.3358 179.054 88.242 181.179C86.1431 183.294 83.367 184.346 79.9087 184.346H74.9295ZM79.9087 182.242C82.6691 182.242 84.8931 181.377 86.5754 179.638C88.2524 177.888 89.0962 175.591 89.0962 172.742V162.179C89.0962 159.346 88.2629 157.054 86.5962 155.304C84.9399 153.554 82.7629 152.679 80.0545 152.679H75.1379C72.4139 152.679 70.2316 153.554 68.5962 155.304C66.9556 157.054 66.1379 159.346 66.1379 162.179V172.742C66.1379 175.591 66.9399 177.888 68.5545 179.638C70.1795 181.377 72.3045 182.242 74.9295 182.242H79.9087Z" fill="black"/>
<path d="M107.973 185.416C104.734 185.416 102.431 184.744 101.056 183.395C99.6815 182.035 98.994 179.78 98.994 176.624V154.791H93.2856V152.686H99.0565V142.791H101.286V152.686H109.806V154.791H101.286V176.624C101.286 179.03 101.775 180.744 102.765 181.77C103.749 182.801 105.4 183.311 107.723 183.311H109.806V185.416H107.973Z" fill="black"/>
<path d="M128.5 185.936C125.61 185.936 123.276 185.176 121.5 183.645C119.735 182.119 118.854 180.082 118.854 177.541V174.666C118.854 172.124 119.735 170.103 121.5 168.603C123.276 167.093 125.651 166.332 128.625 166.332H133.021C134.563 166.332 136.157 166.613 137.813 167.166C139.479 167.707 140.881 168.436 142.021 169.353V162.061C142.021 159.744 141.339 157.869 139.979 156.436C138.615 154.994 136.844 154.27 134.667 154.27H129.688C127.407 154.27 125.568 154.801 124.167 155.853C122.776 156.895 122.084 158.291 122.084 160.041H119.771C119.771 157.681 120.677 155.78 122.5 154.332C124.318 152.889 126.714 152.166 129.688 152.166H134.667C137.552 152.166 139.881 153.077 141.646 154.895C143.422 156.702 144.313 159.093 144.313 162.061V185.416H142.084V179.832C140.761 181.764 139.271 183.264 137.604 184.332C135.948 185.405 134.292 185.936 132.625 185.936H128.5ZM132.625 183.832C134.25 183.832 135.907 183.16 137.604 181.811C139.313 180.452 140.782 178.681 142.021 176.499V171.832C141.006 170.832 139.667 170.02 138 169.395C136.344 168.759 134.688 168.436 133.021 168.436H128.625C126.36 168.436 124.547 168.994 123.188 170.103C121.839 171.218 121.167 172.738 121.167 174.666V177.541C121.167 179.431 121.839 180.952 123.188 182.103C124.547 183.259 126.318 183.832 128.5 183.832H132.625Z" fill="black"/>
<path d="M155.452 152.686H157.681V159.061C158.9 156.827 160.368 155.119 162.077 153.936C163.785 152.759 165.577 152.166 167.452 152.166H171.785C174.493 152.166 176.686 153.139 178.368 155.082C180.045 157.03 180.889 159.598 180.889 162.791V185.416H178.597V162.791C178.597 160.249 177.972 158.197 176.722 156.624C175.483 155.056 173.837 154.27 171.785 154.27H167.452C165.577 154.27 163.743 155.082 161.952 156.707C160.16 158.322 158.754 160.457 157.743 163.124V185.416H155.452V152.686Z" fill="black"/>
<path d="M193.796 146.519C193.098 146.519 192.546 146.311 192.129 145.894C191.713 145.478 191.504 144.926 191.504 144.228C191.504 143.535 191.713 142.978 192.129 142.561C192.546 142.144 193.098 141.936 193.796 141.936C194.504 141.936 195.056 142.144 195.463 142.561C195.879 142.978 196.088 143.535 196.088 144.228C196.088 144.926 195.879 145.478 195.463 145.894C195.056 146.311 194.504 146.519 193.796 146.519ZM192.629 152.686H194.921V185.415H192.629V152.686Z" fill="black"/>
<path d="M207.635 152.686H209.864V159.061C211.083 156.827 212.552 155.119 214.26 153.936C215.969 152.759 217.76 152.166 219.635 152.166H223.969C226.677 152.166 228.87 153.139 230.552 155.082C232.229 157.03 233.073 159.598 233.073 162.791V185.416H230.781V162.791C230.781 160.249 230.156 158.197 228.906 156.624C227.667 155.056 226.021 154.27 223.969 154.27H219.635C217.76 154.27 215.927 155.082 214.135 156.707C212.344 158.322 210.937 160.457 209.927 163.124V185.416H207.635V152.686Z" fill="black"/>
<path d="M253.996 185.936C250.674 185.936 247.996 184.869 245.955 182.728C243.924 180.593 242.913 177.791 242.913 174.332V163.77C242.913 160.311 243.944 157.514 246.017 155.374C248.101 153.238 250.83 152.166 254.205 152.166H259.121C262.522 152.166 265.257 153.228 267.33 155.353C269.413 157.468 270.455 160.27 270.455 163.77V174.332C270.455 177.832 269.403 180.645 267.309 182.77C265.21 184.884 262.434 185.936 258.976 185.936H253.996ZM258.976 183.832C261.736 183.832 263.96 182.968 265.642 181.228C267.319 179.478 268.163 177.181 268.163 174.332V163.77C268.163 160.936 267.33 158.645 265.663 156.895C264.007 155.145 261.83 154.27 259.121 154.27H254.205C251.481 154.27 249.299 155.145 247.663 156.895C246.022 158.645 245.205 160.936 245.205 163.77V174.332C245.205 177.181 246.007 179.478 247.621 181.228C249.246 182.968 251.371 183.832 253.996 183.832H258.976Z" fill="black"/>
<path d="M87.7917 106.021C85.0417 106.021 82.8854 105.229 81.3333 103.646C79.776 102.063 79 99.875 79 97.0833H80.6667C80.6667 99.4063 81.2969 101.219 82.5625 102.521C83.8229 103.813 85.5677 104.458 87.7917 104.458H93.1667C95.2917 104.458 97 103.958 98.2917 102.958C99.5938 101.958 100.25 100.641 100.25 99V95.625C100.25 94.2656 99.7708 93.1198 98.8125 92.1875C97.8646 91.2448 96.5417 90.6354 94.8333 90.3542L86.4167 88.9167C84.2344 88.5417 82.526 87.7448 81.2917 86.5208C80.0521 85.3021 79.4375 83.7708 79.4375 81.9375V78.9375C79.4375 76.8542 80.2135 75.1823 81.7708 73.9167C83.3385 72.6406 85.3958 72 87.9375 72H93.3125C95.7396 72 97.6979 72.7396 99.1875 74.2083C100.688 75.6823 101.438 77.6406 101.438 80.0833H99.7708C99.7708 78.1146 99.1719 76.5365 97.9792 75.3542C96.7969 74.1615 95.2396 73.5625 93.3125 73.5625H87.9375C85.8802 73.5625 84.2344 74.0573 83 75.0417C81.7604 76.0312 81.1458 77.3281 81.1458 78.9375V81.9375C81.1458 83.3542 81.6042 84.5365 82.5208 85.4792C83.4375 86.4115 84.7344 87.0208 86.4167 87.3125L94.8333 88.7292C97.0833 89.1042 98.8333 89.9063 100.083 91.125C101.333 92.349 101.958 93.849 101.958 95.625V99C101.958 101.115 101.146 102.813 99.5208 104.104C97.9062 105.385 95.7917 106.021 93.1667 106.021H87.7917Z" fill="black"/>
<path d="M117.813 105.646C115.479 105.646 113.813 105.161 112.813 104.188C111.813 103.203 111.313 101.563 111.313 99.2708V83.4583H107.167V81.9375H111.354V74.75H112.979V81.9375H119.146V83.4583H112.979V99.2708C112.979 101.021 113.334 102.271 114.042 103.021C114.75 103.76 115.943 104.125 117.625 104.125H119.146V105.646H117.813Z" fill="black"/>
<path d="M132.881 106.021C130.923 106.021 129.329 105.349 128.11 104C126.886 102.656 126.277 100.891 126.277 98.7083V81.9375H127.944V98.7083C127.944 100.448 128.391 101.849 129.298 102.917C130.199 103.974 131.391 104.5 132.881 104.5H135.839C136.714 104.5 137.652 104.161 138.652 103.479C139.652 102.802 140.548 101.927 141.339 100.854C142.131 99.7708 142.673 98.6458 142.964 97.4792V81.9375H144.631V105.646H143.006V100.75C142.115 102.307 141.011 103.578 139.694 104.563C138.386 105.536 137.115 106.021 135.881 106.021H132.881Z" fill="black"/>
<path d="M159.485 106.021C157.235 106.021 155.428 105.229 154.069 103.646C152.704 102.063 152.027 99.974 152.027 97.375V90.3542C152.027 87.7188 152.756 85.5938 154.214 83.9792C155.673 82.3698 157.589 81.5625 159.964 81.5625H163.673C164.881 81.5625 166.027 81.8906 167.11 82.5417C168.204 83.1823 169.089 84.0573 169.756 85.1667V72.375H171.423V105.646H169.798V101.188C168.949 102.771 167.933 103.974 166.756 104.792C165.589 105.615 164.303 106.021 162.902 106.021H159.485ZM162.902 104.5C164.402 104.5 165.766 103.885 167.006 102.646C168.24 101.411 169.157 99.7813 169.756 97.75V88.3542C169.339 86.8021 168.569 85.5365 167.444 84.5625C166.319 83.5781 165.058 83.0833 163.673 83.0833H159.964C158.089 83.0833 156.574 83.75 155.423 85.0833C154.266 86.4063 153.694 88.1615 153.694 90.3542V97.375C153.694 99.5 154.22 101.224 155.277 102.542C156.345 103.849 157.746 104.5 159.485 104.5H162.902Z" fill="black"/>
<path d="M181.354 77.4585C180.838 77.4585 180.427 77.3127 180.125 77.021C179.833 76.7189 179.687 76.3127 179.687 75.8127C179.687 75.3022 179.833 74.896 180.125 74.6043C180.427 74.3022 180.838 74.146 181.354 74.146C181.854 74.146 182.25 74.3022 182.541 74.6043C182.843 74.896 183 75.3022 183 75.8127C183 76.3127 182.843 76.7189 182.541 77.021C182.25 77.3127 181.854 77.4585 181.354 77.4585ZM180.5 81.9377H182.145V105.646H180.5V81.9377Z" fill="black"/>
<path d="M198.459 106.021C196.042 106.021 194.094 105.25 192.625 103.708C191.151 102.156 190.417 100.125 190.417 97.625V89.9583C190.417 87.4583 191.167 85.4375 192.667 83.8958C194.177 82.3438 196.151 81.5625 198.584 81.5625H202.167C204.625 81.5625 206.604 82.3333 208.104 83.875C209.615 85.4062 210.375 87.4323 210.375 89.9583V97.625C210.375 100.156 209.61 102.188 208.084 103.729C206.568 105.26 204.563 106.021 202.063 106.021H198.459ZM202.063 104.5C204.063 104.5 205.667 103.87 206.875 102.604C208.094 101.344 208.709 99.6823 208.709 97.625V89.9583C208.709 87.9062 208.104 86.2448 206.896 84.9792C205.698 83.7188 204.125 83.0833 202.167 83.0833H198.584C196.625 83.0833 195.047 83.7188 193.854 84.9792C192.672 86.2448 192.084 87.9062 192.084 89.9583V97.625C192.084 99.6823 192.667 101.344 193.834 102.604C195.011 103.87 196.552 104.5 198.459 104.5H202.063Z" fill="black"/>
</svg>
